<svg height="511pt" viewBox="0 1 511.99974 511" width="511pt" xmlns="http://www.w3.org/2000/svg"><path d="m185 142.5c-102.007812 0-185 82.992188-185 185v170c0 8.28125 6.714844 15 15 15h339.996094c8.285156 0 15-6.71875 15-15v-170c0-102.007812-82.988282-185-184.996094-185zm154.996094 340h-309.996094v-155c0-85.46875 69.53125-155 155-155 85.464844 0 154.996094 69.53125 154.996094 155zm0 0"/><path d="m509.988281 269.507812-72.5-125.574218 64.949219-37.5c7.175781-4.140625 9.632812-13.316406 5.492188-20.488282l-45-77.941406c-4.144532-7.175781-13.316407-9.632812-20.492188-5.492187l-51.957031 30s0 0-.003907 0l-103.921874 60c-7.171876 4.140625-9.632813 13.316406-5.488282 20.488281l45 77.945312c2.777344 4.8125 7.820313 7.5 13.003906 7.5 2.542969 0 5.125-.648437 7.484376-2.011718l51.957031-29.996094c.003906-.003906.003906-.003906.007812-.003906l12.988281-7.5 72.5 125.574218c2.777344 4.8125 7.820313 7.5 13.003907 7.5 2.542969 0 5.125-.648437 7.484375-2.011718 7.175781-4.140625 9.632812-13.316406 5.492187-20.488282zm-113.480469-136.554687-30-51.960937 12.988282-7.5 12.992187-7.5 30 51.960937-12.992187 7.5zm47.941407-96.960937 30 51.960937-25.980469 15-30-51.960937zm-99.902344 126.960937-30-51.960937 25.980469-15 30 51.960937zm0 0"/><path d="m240 312.5c-5.597656 0-11.09375.609375-16.449219 1.8125-7.886719-13.0625-22.214843-21.8125-38.550781-21.8125-16.339844 0-30.667969 8.753906-38.550781 21.8125-5.359375-1.203125-10.851563-1.8125-16.449219-1.8125-41.355469 0-75 33.644531-75 75s33.644531 75 75 75c21.242188 0 41.046875-8.96875 55-24.011719 13.949219 15.042969 33.753906 24.011719 55 24.011719 41.351562 0 75-33.644531 75-75s-33.648438-75-75-75zm-55 10c8.269531 0 15 6.730469 15 15s-6.730469 15-15 15c-8.273438 0-15-6.730469-15-15s6.726562-15 15-15zm55 110c-17.894531 0-34.085938-10.605469-41.253906-27.019531-2.386719-5.464844-7.785156-8.996094-13.746094-8.996094-5.964844 0-11.359375 3.53125-13.746094 8.996094-7.167968 16.414062-23.363281 27.019531-41.253906 27.019531-24.8125 0-45-20.1875-45-45s20.1875-45 45-45c3.558594 0 7.046875.421875 10.441406 1.230469 3.042969 21.871093 21.859375 38.769531 44.558594 38.769531s41.515625-16.898438 44.558594-38.769531c3.390625-.808594 6.878906-1.230469 10.441406-1.230469 24.8125 0 45 20.1875 45 45s-20.1875 45-45 45zm0 0"/><path d="m92.363281 271.050781 39.996094 10c1.222656.304688 2.445313.453125 3.652344.453125 6.71875 0 12.835937-4.550781 14.539062-11.367187 2.007813-8.035157-2.875-16.179688-10.914062-18.1875l-40-10c-8.039063-2.011719-16.179688 2.875-18.1875 10.914062-2.011719 8.035157 2.875 16.179688 10.914062 18.1875zm0 0"/><path d="m233.988281 281.503906c1.203125 0 2.425781-.144531 3.648438-.453125l40-10c8.035156-2.007812 12.921875-10.152343 10.914062-18.1875-2.007812-8.039062-10.15625-12.929687-18.1875-10.914062l-40 10c-8.039062 2.007812-12.925781 10.152343-10.914062 18.1875 1.703125 6.816406 7.816406 11.367187 14.539062 11.367187zm0 0"/><path d="m171.476562 77.996094-4.09375 25.089844c-.925781 5.671874 1.46875 11.367187 6.164063 14.679687 4.695313 3.308594 10.871094 3.640625 15.898437.863281l20.554688-11.363281 20.554688 11.363281c2.265624 1.25 4.761718 1.871094 7.253906 1.871094 3.035156 0 6.0625-.921875 8.640625-2.738281 4.695312-3.308594 7.089843-9.007813 6.164062-14.675781l-4.089843-25.089844 17.210937-17.644532c3.925781-4.023437 5.273437-9.90625 3.488281-15.234374-1.785156-5.332032-6.402344-9.21875-11.960937-10.066407l-23.179688-3.542969-10.503906-22.378906c-2.472656-5.265625-7.761719-8.628906-13.578125-8.628906s-11.109375 3.363281-13.582031 8.628906l-10.503907 22.378906-23.179687 3.542969c-5.558594.851563-10.175781 4.734375-11.960937 10.066407-1.78125 5.332031-.4375 11.210937 3.488281 15.234374zm26.882813-18.039063c4.945313-.757812 9.1875-3.929687 11.3125-8.457031l.328125-.695312.324219.695312c2.125 4.527344 6.371093 7.699219 11.316406 8.453125l2.234375.34375-2.113281 2.164063c-3.324219 3.410156-4.835938 8.191406-4.066407 12.890624l.335938 2.078126-.777344-.429688c-2.257812-1.25-4.757812-1.875-7.257812-1.875s-4.996094.625-7.253906 1.875l-.777344.429688.335937-2.078126c.769531-4.699218-.742187-9.480468-4.066406-12.890624l-2.113281-2.164063zm0 0"/><path d="m95.394531 101.105469c2.929688 2.929687 6.765625 4.394531 10.605469 4.394531 3.835938 0 7.675781-1.464844 10.605469-4.394531 5.859375-5.855469 5.859375-15.351563 0-21.210938l-30-30c-5.855469-5.855469-15.355469-5.855469-21.210938 0-5.859375 5.855469-5.859375 15.355469 0 21.210938zm0 0"/><path d="m26 145.5h40c8.285156 0 15-6.714844 15-15 0-8.28125-6.714844-15-15-15h-40c-8.285156 0-15 6.71875-15 15 0 8.285156 6.714844 15 15 15zm0 0"/></svg>